<svg height="512" viewBox="0 0 192 192" width="512" xmlns="http://www.w3.org/2000/svg">
    <path d="m20.348 36.967a95.9 95.9 0 0 0 -16.179 87.033h66.431z" fill="#c29a54" />
    <path d="m7.011 132a96.388 96.388 0 0 0 67.319 57.534l33.217-57.534z" fill="#c29a54" />
    <path d="m171.652 155.033a95.9 95.9 0 0 0 16.179-87.033h-66.431z" fill="#c29a54" />
    <path d="m132.95 104-50.27 87.071a95.855 95.855 0 0 0 83.455-29.594z" fill="#c29a54" />
    <path d="m59.049 88 50.272-87.071a95.857 95.857 0 0 0 -83.456 29.594z" fill="#c29a54" />
    <path d="m117.67 2.466-33.217 57.534h100.536a96.388 96.388 0 0 0 -67.319-57.534z"
        fill="#c29a54" />
</svg>