<svg xmlns="http://www.w3.org/2000/svg" width="29" height="29" viewBox="0 0 29 29">
  <g id="Group_677" data-name="Group 677" transform="translate(0.033 0.5)">
    <rect id="Rectangle_125" data-name="Rectangle 125" width="29" height="29" transform="translate(-0.033 -0.5)" fill="none"/>
    <g id="document_1_" data-name="document(1)" transform="translate(3.05 3.828)">
      <g id="Group_441" data-name="Group 441" transform="translate(3.108 0)">
        <g id="Group_440" data-name="Group 440" transform="translate(0 0)">
          <path id="Path_363" data-name="Path 363" d="M73.3,19.652a2.561,2.561,0,0,0-2.571,2.542l-.093,13.18,1.4.01L72.136,22.2A1.158,1.158,0,0,1,73.3,21.054H87.4v-1.4Z" transform="translate(-70.64 -19.652)" fill="rgba(0,0,0,0.24)"/>
        </g>
      </g>
      <g id="Group_443" data-name="Group 443" transform="translate(0 0)">
        <g id="Group_442" data-name="Group 442" transform="translate(0 0)">
          <path id="Path_364" data-name="Path 364" d="M19.864,19.652A2.667,2.667,0,0,0,17.2,22.316V37.109a1.94,1.94,0,1,1-3.879,0V35.4a.7.7,0,0,0-.7-.7H.7a.7.7,0,0,0-.7.7v1.706A3.346,3.346,0,0,0,3.342,40.45v-1.4a1.942,1.942,0,0,1-1.94-1.94v-1H11.918v1a3.342,3.342,0,1,0,6.683,0V26.149h3.225a.7.7,0,0,0,.7-.7V22.316A2.667,2.667,0,0,0,19.864,19.652Zm1.262,5.094H18.6v-2.43a1.262,1.262,0,0,1,2.524,0v2.43Z" transform="translate(0 -19.652)" fill="rgba(0,0,0,0.24)"/>
        </g>
      </g>
      <g id="Group_445" data-name="Group 445" transform="translate(3.202 19.396)">
        <g id="Group_444" data-name="Group 444" transform="translate(0 0)">
          <rect id="Rectangle_123" data-name="Rectangle 123" width="11.895" height="1.402" fill="rgba(0,0,0,0.24)"/>
        </g>
      </g>
      <g id="Group_447" data-name="Group 447" transform="translate(6.099 3.903)">
        <g id="Group_446" data-name="Group 446">
          <path id="Path_365" data-name="Path 365" d="M142.945,108.349h-3.622a.7.7,0,1,0,0,1.4h3.622a.7.7,0,0,0,0-1.4Z" transform="translate(-138.622 -108.349)" fill="rgba(0,0,0,0.24)"/>
        </g>
      </g>
      <g id="Group_449" data-name="Group 449" transform="translate(6.099 6.707)">
        <g id="Group_448" data-name="Group 448" transform="translate(0 0)">
          <path id="Path_366" data-name="Path 366" d="M147.152,172.083h-7.829a.7.7,0,1,0,0,1.4h7.829a.7.7,0,0,0,0-1.4Z" transform="translate(-138.622 -172.083)" fill="rgba(0,0,0,0.24)"/>
        </g>
      </g>
      <g id="Group_451" data-name="Group 451" transform="translate(6.099 9.511)">
        <g id="Group_450" data-name="Group 450" transform="translate(0 0)">
          <path id="Path_367" data-name="Path 367" d="M147.152,235.817h-7.829a.7.7,0,1,0,0,1.4h7.829a.7.7,0,1,0,0-1.4Z" transform="translate(-138.622 -235.817)" fill="rgba(0,0,0,0.24)"/>
        </g>
      </g>
      <g id="Group_453" data-name="Group 453" transform="translate(6.099 12.315)">
        <g id="Group_452" data-name="Group 452">
          <path id="Path_368" data-name="Path 368" d="M147.152,299.552h-7.829a.7.7,0,1,0,0,1.4h7.829a.7.7,0,1,0,0-1.4Z" transform="translate(-138.622 -299.552)" fill="rgba(0,0,0,0.24)"/>
        </g>
      </g>
    </g>
  </g>
</svg>
